HIERARCHY
ROOT hip
{
	OFFSET 0.000000 0.000000 0.000000 
	CHANNELS 6 Xposition Yposition Zposition Xrotation Zrotation Yrotation
	JOINT abdomen
	{
		OFFSET 0.000000 3.402643 0.000000 
		CHANNELS 3 Xrotation Zrotation Yrotation
		JOINT chest
		{
			OFFSET 0.000000 8.438565 -0.680529 
			CHANNELS 3 Xrotation Zrotation Yrotation
			JOINT neck
			{
				OFFSET 0.000000 10.207942 -0.272212 
				CHANNELS 3 Xrotation Zrotation Yrotation
				JOINT head
				{
					OFFSET 0.000000 3.130431 0.000000 
					CHANNELS 3 Xrotation Zrotation Yrotation
					End Site
					{
						OFFSET 0.000000 3.130435 0.000000 
					}
				}
			}
			JOINT lCollar
			{
				OFFSET 3.470700 6.669187 -0.816635 
				CHANNELS 3 Yrotation Zrotation Xrotation
				JOINT lShldr
				{
					OFFSET 3.198488 0.000000 0.000000 
					CHANNELS 3 Zrotation Yrotation Xrotation
					JOINT lForeArm
					{
						OFFSET 10.139888 0.000000 0.000000 
						CHANNELS 3 Yrotation Zrotation Xrotation
						JOINT lHand
						{
							OFFSET 8.370511 0.000000 0.000000 
							CHANNELS 3 Zrotation Yrotation Xrotation
							End Site
							{
								OFFSET 4.083176 0.000000 0.000000 
							}
						}
					}
				}
			}
			JOINT rCollar
			{
				OFFSET -3.470700 6.669187 -0.816635 
				CHANNELS 3 Yrotation Zrotation Xrotation
				JOINT rShldr
				{
					OFFSET -3.198488 0.000000 0.000000 
					CHANNELS 3 Zrotation Yrotation Xrotation
					JOINT rForeArm
					{
						OFFSET -10.139888 0.000000 0.000000 
						CHANNELS 3 Yrotation Zrotation Xrotation
						JOINT rHand
						{
							OFFSET -8.370511 0.000000 0.000000 
							CHANNELS 3 Zrotation Yrotation Xrotation
							End Site
							{
								OFFSET -4.083176 0.000000 0.000000 
							}
						}
					}
				}
			}
		}
	}
	JOINT lThigh
	{
		OFFSET 5.308129 -1.633274 1.361059 
		CHANNELS 3 Xrotation Zrotation Yrotation
		JOINT lShin
		{
			OFFSET -2.041588 -20.007561 0.000000 
			CHANNELS 3 Xrotation Zrotation Yrotation
			JOINT lFoot
			{
				OFFSET 0.000000 -19.190928 -1.224953 
				CHANNELS 3 Xrotation Yrotation Zrotation
				End Site
				{
					OFFSET 0.000000 -2.449906 4.627600 
				}
			}
		}
	}
	JOINT rThigh
	{
		OFFSET -5.308129 -1.633274 1.361059 
		CHANNELS 3 Xrotation Zrotation Yrotation
		JOINT rShin
		{
			OFFSET 2.041588 -20.007561 0.000000 
			CHANNELS 3 Xrotation Zrotation Yrotation
			JOINT rFoot
			{
				OFFSET 0.000000 -19.190928 -1.224953 
				CHANNELS 3 Xrotation Yrotation Zrotation
				End Site
				{
					OFFSET 0.000000 -2.449906 4.627600 
				}
			}
		}
	}
}
MOTION
Frames: 6
Frame Time: 0.033333
12.005924 26.694504 47.865204 36.821598 -16.007511 28.948616 44.322319 -5.432964 7.109703 -20.839844 0.000000 0.000000 -34.115086 0.475581 7.549675 -2.520846 -1.255050 0.218350 -4.754609 -0.109183 -0.002653 -19.466747 -34.841305 -34.481529 -70.879089 10.409172 7.465881 12.843113 -21.444107 14.854093 4.754609 0.109183 -0.002672 56.786953 44.998077 1.481678 16.557449 2.866773 19.423580 -8.753438 1.163796 13.555876 -115.206100 31.256311 -3.263854 71.160263 -15.815192 -4.556898 8.808047 -7.290299 -4.242614 -99.556656 -44.598118 10.996641 117.505402 1.171776 3.904731 -14.702911 -4.013321 6.237278 
11.506267 26.275154 47.852413 36.949642 -15.437477 30.220015 44.409737 -5.799658 5.670021 -20.839844 0.000000 0.000000 -33.574783 0.643132 7.101268 -2.520846 -1.255050 0.218350 -4.754609 -0.109183 -0.002653 -12.623707 -35.084175 -38.409031 -68.957863 10.763209 6.134052 13.651301 -20.953880 13.555014 4.754609 0.109183 -0.002672 58.271416 46.743706 2.778234 14.176750 2.427281 19.260273 -9.213398 1.577802 13.211832 -115.236382 30.680605 -2.876331 70.799377 -16.010626 -4.443330 9.449975 -7.431457 -4.669169 -96.202728 -44.635384 9.995700 118.906761 0.556494 3.049519 -16.158184 -5.667690 9.735858 
10.900096 25.688278 47.823772 36.847271 -14.411488 31.249542 44.667683 -6.272620 4.405067 -20.839844 0.000000 0.000000 -33.270729 0.670213 7.175899 -2.520846 -1.255050 0.218350 -4.754609 -0.109183 -0.002653 -9.404390 -35.015232 -40.529491 -68.340576 11.338155 5.701862 13.248191 -20.518951 13.571716 4.754609 0.109183 -0.002672 59.857872 47.764938 4.214624 13.108681 2.282672 19.253214 -9.362011 1.902566 12.756777 -115.323212 30.572685 -2.746101 70.843292 -16.119137 -4.414409 10.044250 -7.477789 -5.392305 -95.001572 -44.879467 9.835979 120.380623 0.097778 2.388926 -19.145407 -7.349244 13.179096 
10.225440 25.006474 47.805653 36.164322 -13.241634 31.938917 44.992939 -6.383606 3.716374 -20.839844 0.000000 0.000000 -32.754566 0.563857 7.714026 -2.520846 -1.255050 0.218350 -4.754609 -0.109183 -0.002653 -8.579000 -34.749310 -41.270035 -68.349976 11.833182 5.533884 12.264490 -20.232824 13.808859 4.754609 0.109183 -0.002672 61.587337 48.080299 5.508439 13.435286 2.375240 19.333191 -9.944616 2.106342 12.677774 -115.346169 31.140425 -2.981678 71.188011 -16.227222 -4.616361 10.786923 -7.734118 -5.966357 -96.107422 -45.017197 10.534304 122.845596 -0.408799 1.858260 -20.339258 -8.041814 13.142726 
9.501894 24.328205 47.805195 35.078106 -12.163896 32.442478 45.302364 -5.963331 3.469766 -20.839844 0.000000 0.000000 -32.127975 0.331552 8.508028 -2.520846 -1.255050 0.218350 -4.754609 -0.109183 -0.002653 -9.073886 -34.120220 -41.088161 -68.629829 12.088631 5.408551 10.993262 -20.240088 13.914036 4.754609 0.109183 -0.002672 64.124107 49.518089 7.448442 11.579083 1.978050 19.264608 -11.448280 3.558325 12.639896 -115.268974 31.912434 -3.399215 71.389282 -16.177221 -4.857387 11.820098 -8.078882 -6.421216 -97.750633 -44.852276 11.271259 125.727104 -0.791078 1.392208 -19.827593 -8.196967 11.372716 
8.727631 23.710861 47.814182 34.121113 -11.245991 32.821957 45.595749 -5.481111 3.303902 -20.839844 0.000000 0.000000 -31.572550 0.086340 9.181872 -2.520846 -1.255050 0.218350 -4.754609 -0.109183 -0.002653 -10.650063 -33.174511 -40.200081 -69.636353 12.239100 5.769951 9.993776 -20.197426 14.368621 4.754609 0.109183 -0.002672 66.607452 51.153351 9.509135 9.846818 1.631433 19.030647 -12.600102 4.942286 12.301887 -115.212166 32.684544 -3.894113 71.164734 -16.050602 -5.066761 12.928742 -8.542733 -7.020955 -98.444115 -44.227371 11.420634 128.179520 -1.103511 0.993623 -20.035017 -8.388434 10.241135 
